<svg width="89" height="15" viewBox="0 0 89 15" fill="none" xmlns="http://www.w3.org/2000/svg">
<g clip-path="url(#clip0_0_3)">
<path d="M12.8704 8.01331C13.0616 8.01331 13.2383 8.11533 13.334 8.28094L14.9283 11.0424C15.0239 11.208 15.0239 11.412 14.9283 11.5777L13.334 14.3391C13.2383 14.5047 13.0616 14.6067 12.8704 14.6067H9.68175C9.49053 14.6067 9.31383 14.5047 9.21821 14.3391L7.62388 11.5777C7.52827 11.412 7.52827 11.208 7.62388 11.0424L9.21821 8.28094C9.31383 8.11533 9.49053 8.01331 9.68175 8.01331H12.8704Z" fill="url(#paint0_radial_0_3)"/>
<path d="M7.73421 0.0184986L7.76808 0.0172577L9.72905 0.0184986H12.1515C13.7247 0.0184986 15 1.2938 15 2.86696C15 4.44032 13.7244 5.7157 12.151 5.71542L8.34052 5.71474C8.15751 5.71471 7.98839 5.81232 7.89688 5.9708L6.6408 8.14607C6.6318 8.16166 6.61325 8.1921 6.61325 8.1921L6.59969 8.21673L6.58732 8.23871L3.04428 14.3755C2.96166 14.5186 2.80898 14.6067 2.64374 14.6067H1.84018C1.67495 14.6067 1.52226 14.5186 1.43964 14.3755L0.0619647 11.9893C-0.0206546 11.8462 -0.020655 11.6699 0.0619643 11.5268L2.78628 6.80813C2.79528 6.79255 2.80511 6.77761 2.8157 6.76337C2.82274 6.74707 2.83076 6.7311 2.83976 6.7155L6.57315 0.249749C6.65577 0.106652 6.80846 0.0184986 6.9737 0.0184986H7.73421Z" fill="url(#paint1_radial_0_3)"/>
<path d="M84.3035 11.648C83.5142 11.648 82.8155 11.4827 82.2075 11.152C81.6102 10.8107 81.1408 10.336 80.7995 9.72799C80.4688 9.10933 80.3035 8.38399 80.3035 7.55199V7.35999C80.3035 6.52799 80.4688 5.80799 80.7995 5.19999C81.1302 4.58133 81.5942 4.10666 82.1915 3.77599C82.7888 3.43466 83.4822 3.26399 84.2715 3.26399C85.0502 3.26399 85.7275 3.43999 86.3035 3.79199C86.8795 4.13333 87.3275 4.61333 87.6475 5.23199C87.9675 5.83999 88.1275 6.54933 88.1275 7.35999V8.04799H82.3515C82.3728 8.59199 82.5755 9.03466 82.9595 9.37599C83.3435 9.71733 83.8128 9.88799 84.3675 9.88799C84.9328 9.88799 85.3488 9.76533 85.6155 9.51999C85.8822 9.27466 86.0848 9.00266 86.2235 8.70399L87.8715 9.56799C87.7222 9.84533 87.5035 10.1493 87.2155 10.48C86.9382 10.8 86.5648 11.0773 86.0955 11.312C85.6262 11.536 85.0288 11.648 84.3035 11.648ZM82.3675 6.54399H86.0795C86.0368 6.08533 85.8502 5.71733 85.5195 5.43999C85.1995 5.16266 84.7782 5.02399 84.2555 5.02399C83.7115 5.02399 83.2795 5.16266 82.9595 5.43999C82.6395 5.71733 82.4422 6.08533 82.3675 6.54399Z" fill="#0C0C09"/>
<path d="M70.4844 14.624V3.48799H72.4684V4.44799H72.7564C72.9377 4.13866 73.2204 3.86666 73.6044 3.63199C73.9884 3.38666 74.5377 3.26399 75.2524 3.26399C75.8924 3.26399 76.4844 3.42399 77.0284 3.74399C77.5724 4.05333 78.0097 4.51199 78.3404 5.11999C78.671 5.72799 78.8364 6.46399 78.8364 7.32799V7.58399C78.8364 8.44799 78.671 9.18399 78.3404 9.79199C78.0097 10.4 77.5724 10.864 77.0284 11.184C76.4844 11.4933 75.8924 11.648 75.2524 11.648C74.7724 11.648 74.367 11.5893 74.0364 11.472C73.7164 11.3653 73.455 11.2267 73.2524 11.056C73.0604 10.8747 72.9057 10.6933 72.7884 10.512H72.5004V14.624H70.4844ZM74.6444 9.88799C75.2737 9.88799 75.791 9.69066 76.1964 9.29599C76.6124 8.89066 76.8204 8.30399 76.8204 7.53599V7.37599C76.8204 6.60799 76.6124 6.02666 76.1964 5.63199C75.7804 5.22666 75.263 5.02399 74.6444 5.02399C74.0257 5.02399 73.5084 5.22666 73.0924 5.63199C72.6764 6.02666 72.4684 6.60799 72.4684 7.37599V7.53599C72.4684 8.30399 72.6764 8.89066 73.0924 9.29599C73.5084 9.69066 74.0257 9.88799 74.6444 9.88799Z" fill="#0C0C09"/>
<path d="M66.2344 3.488V11.424H68.2504V3.488H66.2344Z" fill="url(#paint2_radial_0_3)"/>
<path d="M67.8846 0C67.9616 9.26425e-10 68.0328 0.041093 68.0713 0.107799L68.7135 1.22012C68.752 1.28683 68.752 1.36902 68.7135 1.43572L68.0713 2.54805C68.0328 2.61475 67.9616 2.65585 67.8846 2.65585H66.6002C66.5231 2.65585 66.452 2.61475 66.4135 2.54805L65.7713 1.43572C65.7327 1.36902 65.7327 1.28683 65.7713 1.22012L66.4135 0.107799C66.452 0.041093 66.5231 -9.26425e-10 66.6002 0H67.8846Z" fill="url(#paint3_radial_0_3)"/>
<path d="M56.0312 14.624V3.48799H58.0152V4.44799H58.3032C58.4846 4.13866 58.7672 3.86666 59.1512 3.63199C59.5352 3.38666 60.0846 3.26399 60.7992 3.26399C61.4392 3.26399 62.0312 3.42399 62.5752 3.74399C63.1192 4.05333 63.5566 4.51199 63.8872 5.11999C64.2179 5.72799 64.3832 6.46399 64.3832 7.32799V7.58399C64.3832 8.44799 64.2179 9.18399 63.8872 9.79199C63.5566 10.4 63.1192 10.864 62.5752 11.184C62.0312 11.4933 61.4392 11.648 60.7992 11.648C60.3192 11.648 59.9139 11.5893 59.5832 11.472C59.2632 11.3653 59.0019 11.2267 58.7992 11.056C58.6072 10.8747 58.4526 10.6933 58.3352 10.512H58.0472V14.624H56.0312ZM60.1912 9.88799C60.8206 9.88799 61.3379 9.69066 61.7432 9.29599C62.1592 8.89066 62.3672 8.30399 62.3672 7.53599V7.37599C62.3672 6.60799 62.1592 6.02666 61.7432 5.63199C61.3272 5.22666 60.8099 5.02399 60.1912 5.02399C59.5726 5.02399 59.0552 5.22666 58.6392 5.63199C58.2232 6.02666 58.0152 6.60799 58.0152 7.37599V7.53599C58.0152 8.30399 58.2232 8.89066 58.6392 9.29599C59.0552 9.69066 59.5726 9.88799 60.1912 9.88799Z" fill="#0C0C09"/>
<path d="M46.1719 11.424V0.223999H48.1879V4.464H48.4759C48.5612 4.29333 48.6945 4.12267 48.8759 3.952C49.0572 3.78133 49.2972 3.64267 49.5959 3.536C49.9052 3.41867 50.2945 3.36 50.7639 3.36C51.3825 3.36 51.9212 3.504 52.3799 3.792C52.8492 4.06933 53.2119 4.45867 53.4679 4.96C53.7239 5.45067 53.8519 6.02667 53.8519 6.688V11.424H51.8359V6.848C51.8359 6.25067 51.6865 5.80267 51.3879 5.504C51.0999 5.20533 50.6839 5.056 50.1399 5.056C49.5212 5.056 49.0412 5.264 48.6999 5.68C48.3585 6.08533 48.1879 6.656 48.1879 7.392V11.424H46.1719Z" fill="#0C0C09"/>
<path d="M41.915 11.424C41.3923 11.424 40.9657 11.264 40.635 10.944C40.315 10.6133 40.155 10.176 40.155 9.632V5.152H38.171V3.488H40.155V1.024H42.171V3.488H44.347V5.152H42.171V9.28C42.171 9.6 42.3203 9.76 42.619 9.76H44.155V11.424H41.915Z" fill="#0C0C09"/>
<path d="M32.6671 11.648C32.1018 11.648 31.5951 11.552 31.1471 11.36C30.6991 11.1573 30.3418 10.8693 30.0751 10.496C29.8191 10.112 29.6911 9.64799 29.6911 9.10399C29.6911 8.55999 29.8191 8.10666 30.0751 7.74399C30.3418 7.37066 30.7045 7.09333 31.1631 6.91199C31.6325 6.71999 32.1658 6.62399 32.7631 6.62399H34.9391V6.17599C34.9391 5.80266 34.8218 5.49866 34.5871 5.26399C34.3525 5.01866 33.9791 4.89599 33.4671 4.89599C32.9658 4.89599 32.5925 5.01333 32.3471 5.24799C32.1018 5.47199 31.9418 5.76533 31.8671 6.12799L30.0111 5.50399C30.1391 5.09866 30.3418 4.73066 30.6191 4.39999C30.9071 4.05866 31.2858 3.78666 31.7551 3.58399C32.2351 3.37066 32.8165 3.26399 33.4991 3.26399C34.5445 3.26399 35.3711 3.52533 35.9791 4.04799C36.5871 4.57066 36.8911 5.32799 36.8911 6.31999V9.27999C36.8911 9.59999 37.0405 9.75999 37.3391 9.75999H37.9791V11.424H36.6351C36.2405 11.424 35.9151 11.328 35.6591 11.136C35.4031 10.944 35.2751 10.688 35.2751 10.368V10.352H34.9711C34.9285 10.48 34.8325 10.6507 34.6831 10.864C34.5338 11.0667 34.2991 11.248 33.9791 11.408C33.6591 11.568 33.2218 11.648 32.6671 11.648ZM33.0191 10.016C33.5845 10.016 34.0431 9.86133 34.3951 9.55199C34.7578 9.23199 34.9391 8.81066 34.9391 8.28799V8.12799H32.9071C32.5338 8.12799 32.2405 8.20799 32.0271 8.36799C31.8138 8.52799 31.7071 8.75199 31.7071 9.03999C31.7071 9.32799 31.8191 9.56266 32.0431 9.74399C32.2671 9.92533 32.5925 10.016 33.0191 10.016Z" fill="#0C0C09"/>
<path d="M20 14.624V3.48799H21.984V4.44799H22.272C22.4533 4.13866 22.736 3.86666 23.12 3.63199C23.504 3.38666 24.0533 3.26399 24.768 3.26399C25.408 3.26399 26 3.42399 26.544 3.74399C27.088 4.05333 27.5253 4.51199 27.856 5.11999C28.1867 5.72799 28.352 6.46399 28.352 7.32799V7.58399C28.352 8.44799 28.1867 9.18399 27.856 9.79199C27.5253 10.4 27.088 10.864 26.544 11.184C26 11.4933 25.408 11.648 24.768 11.648C24.288 11.648 23.8827 11.5893 23.552 11.472C23.232 11.3653 22.9707 11.2267 22.768 11.056C22.576 10.8747 22.4213 10.6933 22.304 10.512H22.016V14.624H20ZM24.16 9.88799C24.7893 9.88799 25.3067 9.69066 25.712 9.29599C26.128 8.89066 26.336 8.30399 26.336 7.53599V7.37599C26.336 6.60799 26.128 6.02666 25.712 5.63199C25.296 5.22666 24.7787 5.02399 24.16 5.02399C23.5413 5.02399 23.024 5.22666 22.608 5.63199C22.192 6.02666 21.984 6.60799 21.984 7.37599V7.53599C21.984 8.30399 22.192 8.89066 22.608 9.29599C23.024 9.69066 23.5413 9.88799 24.16 9.88799Z" fill="#0C0C09"/>
</g>
<defs>
<radialGradient id="paint0_radial_0_3" cx="0" cy="0" r="1" gradientTransform="matrix(-6.84788 7.10821 -8.02931 -6.40826 15.4221 7.72169)" gradientUnits="userSpaceOnUse">
<stop stop-color="#0ED9A8"/>
<stop offset="0.230769" stop-color="#0B9D79"/>
<stop offset="0.519231" stop-color="#0B7054"/>
<stop offset="1" stop-color="#0A4533"/>
</radialGradient>
<radialGradient id="paint1_radial_0_3" cx="0" cy="0" r="1" gradientUnits="userSpaceOnUse" gradientTransform="translate(15.8502 -0.628019) rotate(131.246) scale(20.9189 21.5075)">
<stop stop-color="#0ED9A8"/>
<stop offset="0.230769" stop-color="#0B9D79"/>
<stop offset="0.519231" stop-color="#0B7054"/>
<stop offset="1" stop-color="#0A4533"/>
</radialGradient>
<radialGradient id="paint2_radial_0_3" cx="0" cy="0" r="1" gradientTransform="matrix(-1.85361 8.5556 -2.1734 -7.71313 68.3646 3.137)" gradientUnits="userSpaceOnUse">
<stop stop-color="#0ED9A8"/>
<stop offset="0.230769" stop-color="#0B9D79"/>
<stop offset="0.519231" stop-color="#0B7054"/>
<stop offset="1" stop-color="#0A4533"/>
</radialGradient>
<radialGradient id="paint3_radial_0_3" cx="0" cy="0" r="1" gradientTransform="matrix(-2.75834 2.8632 -3.23422 -2.58126 68.9124 -0.117465)" gradientUnits="userSpaceOnUse">
<stop stop-color="#0ED9A8"/>
<stop offset="0.230769" stop-color="#0B9D79"/>
<stop offset="0.519231" stop-color="#0B7054"/>
<stop offset="1" stop-color="#0A4533"/>
</radialGradient>
<clipPath id="clip0_0_3">
<rect width="88.1275" height="14.624" fill="white"/>
</clipPath>
</defs>
</svg>
